<?xml version="1.0" encoding="utf-8"?><!-- Uploaded to: SVG Repo, www.svgrepo.com, Generator: SVG Repo Mixer Tools -->
<svg version="1.1" id="Uploaded to svgrepo.com" xmlns="http://www.w3.org/2000/svg" xmlns:xlink="http://www.w3.org/1999/xlink" 
	 width="800px" height="800px" viewBox="0 0 32 32" xml:space="preserve">
<style type="text/css">
	.bentblocks_een{fill:#0B1719;}
</style>
<path class="bentblocks_een" d="M8,20v4h4v2H6v-6H8 M10,18H4v4v6h10v-6h-4V18L10,18z M26,6v6h-2V8h-4V6H26 M28,4H18v6h4v4h6v-4V4
	L28,4z M8,14H6v2h2V14z M8,10H6v2h2V10z M8,6H6v2h2V6z M12,6h-2v2h2V6z M16,6h-2v2h2V6z M24,18h2v-2h-2V18z M24,22h2v-2h-2V22z
	 M24,26h2v-2h-2V26z M20,26h2v-2h-2V26z M16,26h2v-2h-2V26z"/>
</svg>